<?xml version="1.0" encoding="UTF-8" standalone="no"?>
<!-- Created with Inkscape (http://www.inkscape.org/) -->

<svg
   xmlns:dc="http://purl.org/dc/elements/1.1/"
   xmlns:cc="http://creativecommons.org/ns#"
   xmlns:rdf="http://www.w3.org/1999/02/22-rdf-syntax-ns#"
   xmlns:svg="http://www.w3.org/2000/svg"
   xmlns="http://www.w3.org/2000/svg"
   xmlns:sodipodi="http://sodipodi.sourceforge.net/DTD/sodipodi-0.dtd"
   xmlns:inkscape="http://www.inkscape.org/namespaces/inkscape"
   width="900"
   height="210"
   id="svg2"
   version="1.1"
   inkscape:version="0.48.1 "
   sodipodi:docname="banner.svg"
   inkscape:export-xdpi="90"
   inkscape:export-ydpi="90"
   inkscape:export-filename="banner.png">
  <defs
     id="defs4">
    <filter
       inkscape:collect="always"
       id="filter4009"
       color-interpolation-filters="sRGB">
      <feGaussianBlur
         inkscape:collect="always"
         stdDeviation="2.7019341"
         id="feGaussianBlur4011" />
    </filter>
    <filter
       inkscape:collect="always"
       id="filter4056"
       color-interpolation-filters="sRGB">
      <feGaussianBlur
         inkscape:collect="always"
         stdDeviation="1.185473"
         id="feGaussianBlur4058" />
    </filter>
    <filter
       inkscape:collect="always"
       id="filter4076"
       color-interpolation-filters="sRGB">
      <feGaussianBlur
         inkscape:collect="always"
         stdDeviation="1.8419275"
         id="feGaussianBlur4078" />
    </filter>
    <filter
       inkscape:collect="always"
       id="filter4092"
       color-interpolation-filters="sRGB">
      <feGaussianBlur
         inkscape:collect="always"
         stdDeviation="1.995"
         id="feGaussianBlur4094" />
    </filter>
    <filter
       inkscape:collect="always"
       id="filter4096"
       color-interpolation-filters="sRGB">
      <feGaussianBlur
         inkscape:collect="always"
         stdDeviation="1.9746007"
         id="feGaussianBlur4098" />
    </filter>
  </defs>
  <sodipodi:namedview
     id="base"
     pagecolor="#ffffff"
     bordercolor="#666666"
     borderopacity="1.0"
     inkscape:pageopacity="0.0"
     inkscape:pageshadow="2"
     inkscape:zoom="0.70710678"
     inkscape:cx="506.23906"
     inkscape:cy="66.873635"
     inkscape:document-units="px"
     inkscape:current-layer="layer1"
     showgrid="true"
     inkscape:window-width="1600"
     inkscape:window-height="837"
     inkscape:window-x="-8"
     inkscape:window-y="-8"
     inkscape:window-maximized="1"
     objecttolerance="20"
     gridtolerance="50">
    <inkscape:grid
       type="xygrid"
       id="grid2985"
       empspacing="5"
       visible="true"
       enabled="true"
       snapvisiblegridlinesonly="true" />
  </sodipodi:namedview>
  <metadata
     id="metadata7">
    <rdf:RDF>
      <cc:Work
         rdf:about="">
        <dc:format>image/svg+xml</dc:format>
        <dc:type
           rdf:resource="http://purl.org/dc/dcmitype/StillImage" />
        <dc:title />
      </cc:Work>
    </rdf:RDF>
  </metadata>
  <g
     inkscape:label="レイヤー 1"
     inkscape:groupmode="layer"
     id="layer1"
     transform="translate(0,-842.36217)">
    <rect
       style="color:#000000;fill:#ffffff;fill-opacity:1;fill-rule:nonzero;stroke:none;stroke-width:1;marker:none;visibility:visible;display:inline;overflow:visible;enable-background:accumulate"
       id="rect4272"
       width="940"
       height="240"
       x="-20"
       y="832.36218" />
    <path
       style="fill:#404040;fill-opacity:1;stroke:none;filter:url(#filter4009)"
       d="m 403.81819,855.13487 -131.81819,0 0,130.5 131.81819,0 0,-78.3 -52.72728,0 0,26.1 26.36364,0 0,26.1 -52.72727,0 0,-78.3 79.09091,0 z"
       id="path3792-8-8"
       inkscape:connector-curvature="0"
       sodipodi:nodetypes="ccccccccccccc"
       transform="matrix(0.73172488,0,0,0.73172488,2,282.17639)" />
    <path
       style="fill:#404040;fill-opacity:1;stroke:none;filter:url(#filter4056)"
       d="m 1117.8609,857.9985 0,131.81821 52.6382,0 0,-105.45457 26.3191,0 0,26.36363 26.3191,0 0,-52.72727 z"
       id="path3911-7-6-7"
       inkscape:connector-curvature="0"
       transform="matrix(0.73172488,0,0,0.73172488,2,282.17639)" />
    <path
       inkscape:connector-curvature="0"
       style="color:#000000;fill:#404040;fill-opacity:1;fill-rule:nonzero;stroke:none;stroke-width:1;marker:none;visibility:visible;display:inline;overflow:visible;filter:url(#filter4076);enable-background:accumulate"
       d="m 6.7080972,780.72578 0,263.63642 341.8416228,0 11.28693,-52.95389 156.06037,-148.97515 -116.63849,0 13.14062,-61.70738 z m 620.0191828,0 -11.67827,54.76633 -149.57244,149.32529 121.72585,0 -12.6669,59.5448 642.07818,0 0,-263.63642 z"
       id="rect3787-1"
       sodipodi:nodetypes="cccccccccccccccc"
       transform="matrix(0.73172488,0,0,0.73172488,2,282.17639)" />
    <path
       style="color:#000000;fill:#0073ff;fill-opacity:1;fill-rule:nonzero;stroke:none;stroke-width:1;marker:none;visibility:visible;display:inline;overflow:visible;enable-background:accumulate"
       d="m 2.2260658,852.58811 0,192.90929 250.1340242,0 8.25893,-38.7477 114.19326,-109.00876 -85.34729,0 9.61532,-45.15283 z m 453.6834642,0 -8.54528,40.07388 -109.44587,109.26501 89.06983,0 -9.26869,43.5704 470.99802,-1.3304 0,-191.71194 z"
       id="rect3787"
       inkscape:connector-curvature="0"
       sodipodi:nodetypes="cccccccccccccccc" />
    <path
       style="fill:#404040;fill-opacity:1;stroke:none;filter:url(#filter4092)"
       d="m 180,333.76217 -160,0 0,118.8 120,0 0,39.6 -120,0 0,39.6 160,0 0,-118.8 -80,0 0,-39.6 80,0 z"
       id="path3788-6"
       inkscape:connector-curvature="0"
       sodipodi:nodetypes="ccccccccccccc"
       transform="matrix(0.48227323,0,0,0.48227323,-2.3903493,745.78116)" />
    <path
       style="fill:#404040;fill-opacity:1;stroke:none;filter:url(#filter4092)"
       d="m 220,333.76217 0,158.4 40,0 0,39.6 80,0 0,-39.6 40,0 0,-158.4 -40,0 0,158.4 -40,0 0,-158.4 z"
       id="path3790-5"
       inkscape:connector-curvature="0"
       sodipodi:nodetypes="ccccccccccccc"
       transform="matrix(0.48227323,0,0,0.48227323,-3.853799,744.31771)" />
    <path
       style="fill:#404040;fill-opacity:1;stroke:none;filter:url(#filter4092)"
       d="m 620,333.76217 -200,0 0,198 200,0 0,-118.8 -80,0 0,39.6 40,0 0,39.6 -80,0 0,-118.8 120,0 z"
       id="path3792-8"
       inkscape:connector-curvature="0"
       sodipodi:nodetypes="ccccccccccccc"
       transform="matrix(0.48227323,0,0,0.48227323,-5.3172487,742.85426)" />
    <g
       id="g3965"
       transform="matrix(0.48227323,0,0,0.4774505,-17.29093,723.80256)"
       style="fill:#ffffff;fill-opacity:1">
      <path
         sodipodi:nodetypes="ccccccccccccc"
         inkscape:connector-curvature="0"
         id="path3788"
         d="m 200,372.36217 -160,0 0,120 120,0 0,40 -120,0 0,40 160,0 0,-120 -80,0 0,-40 80,0 z"
         style="fill:#ffffff;fill-opacity:1;stroke:none" />
      <path
         sodipodi:nodetypes="ccccccccccccc"
         inkscape:connector-curvature="0"
         id="path3790"
         d="m 240,372.36217 0,160 40,0 0,40 80,0 0,-40 40,0 0,-160 -40,0 0,160 -40,0 0,-160 z"
         style="fill:#ffffff;fill-opacity:1;stroke:none" />
      <path
         sodipodi:nodetypes="ccccccccccccc"
         inkscape:connector-curvature="0"
         id="path3792"
         d="m 640,372.36217 -200,0 0,200 200,0 0,-120 -80,0 0,40 40,0 0,40 -80,0 0,-120 120,0 z"
         style="fill:#ffffff;fill-opacity:1;stroke:none" />
    </g>
    <path
       style="fill:#404040;fill-opacity:1;stroke:none;filter:url(#filter4096)"
       d="m 903.07786,826.27122 0,26.36364 -52.6382,0 0,131.8182 105.27641,0 0,-158.18184 -52.63821,0 z m -26.3191,52.72728 26.3191,0 0,79.09091 -26.3191,0 0,-79.09091 z"
       id="path3907-5"
       inkscape:connector-curvature="0"
       transform="matrix(0.73172488,0,0,0.73172488,2,282.17639)" />
    <path
       style="fill:#404040;fill-opacity:1;stroke:none;filter:url(#filter4096)"
       d="m 716.84414,850.63486 0,131.8182 52.6382,0 0,-105.45456 26.31911,0 0,26.36363 26.3191,0 0,-52.72727 z"
       id="path3911-4"
       inkscape:connector-curvature="0"
       transform="matrix(0.73172488,0,0,0.73172488,2,282.17639)" />
    <path
       style="fill:#404040;fill-opacity:1;stroke:none;filter:url(#filter4096)"
       d="m 583.24862,848.63486 0,131.8182 105.27641,0 0,-131.8182 -105.27641,0 z m 52.6382,26.36364 26.31911,0 0,79.09091 -26.31911,0 0,-79.09091 z"
       id="path3913-4"
       inkscape:connector-curvature="0"
       transform="matrix(0.73172488,0,0,0.73172488,2,282.17639)" />
    <path
       style="fill:#404040;fill-opacity:1;stroke:none;filter:url(#filter4096)"
       d="m 984.03518,854.63486 0,131.8182 105.27642,0 0,-26.36365 -52.6382,0 0,-26.36364 52.6382,0 0,-79.09091 -105.27642,0 z m 52.63822,26.36364 26.3191,0 0,26.36363 -26.3191,0 0,-26.36363 z"
       id="path3940-1"
       inkscape:connector-curvature="0"
       transform="matrix(0.73172488,0,0,0.73172488,2,282.17639)" />
    <path
       style="fill:#404040;fill-opacity:1;stroke:none;filter:url(#filter4096)"
       d="m 1117.6307,856.64339 0,131.8125 52.625,0 0,-105.46875 26.3437,0 0,26.375 20.2188,0 0,-52.71875 -99.1875,0 z"
       id="path3911-7-6"
       inkscape:connector-curvature="0"
       transform="matrix(0.73172488,0,0,0.73172488,2,282.17639)" />
    <g
       id="g3970"
       transform="matrix(0.48145859,0,0,0.48227323,301.28638,509.0349)"
       style="fill:#ffffff;fill-opacity:1">
      <path
         inkscape:connector-curvature="0"
         id="path3907"
         d="m 740,772.36217 0,40 -80,0 0,200.00003 160,0 0,-240.00003 -80,0 z m -40,80 40,0 0,120 -40,0 0,-120 z"
         style="fill:#ffffff;fill-opacity:1;stroke:none" />
      <path
         inkscape:connector-curvature="0"
         id="path3911"
         d="m 460,812.36217 0,200.00003 80,0 0,-160.00003 40,0 0,40 40,0 0,-80 z"
         style="fill:#ffffff;fill-opacity:1;stroke:none" />
      <path
         inkscape:connector-curvature="0"
         id="path3913"
         d="m 260,812.36217 0,200.00003 160,0 0,-200.00003 -160,0 z m 80,40 40,0 0,120 -40,0 0,-120 z"
         style="fill:#ffffff;fill-opacity:1;stroke:none" />
      <path
         inkscape:connector-curvature="0"
         id="path3940"
         d="m 860,812.36217 0,200.00003 160,0 0,-40.00003 -80,0 0,-40 80,0 0,-120 -160,0 z m 80,40 40,0 0,40 -40,0 0,-40 z"
         style="fill:#ffffff;fill-opacity:1;stroke:none" />
      <path
         inkscape:connector-curvature="0"
         id="path3911-7"
         d="m 1060,812.36217 0,200.00003 80,0 0,-160.00003 40,0 0,40 40,0 0,-80 z"
         style="fill:#ffffff;fill-opacity:1;stroke:none" />
    </g>
    <g
       id="g3044"
       transform="translate(-80.853079,-0.1469223)">
      <g
         transform="matrix(0.24755132,0,0,0.24755132,58.881525,758.52624)"
         id="g3782">
        <path
           style="fill:#d00000;fill-opacity:1;stroke:none"
           d="m 140,260 0,120 100,0 0,20 80,0 0,-20 180,0 0,-120 z"
           id="path3780"
           inkscape:connector-curvature="0"
           transform="translate(0,152.36217)" />
        <path
           style="fill:#ffffff;fill-opacity:1;stroke:none"
           d="m 160,280 0,80 40,0 0,-60 20,0 0,60 20,0 0,-80 z"
           id="path3003"
           inkscape:connector-curvature="0"
           transform="translate(0,152.36217)"
           sodipodi:nodetypes="ccccccccc" />
        <path
           inkscape:connector-curvature="0"
           style="fill:#ffffff;fill-opacity:1;stroke:none"
           d="m 260,280 0,100 40,0 0,-20 40,0 0,-80 -80,0 z m 40,20 20,0 0,40 -20,0 0,-40 z"
           transform="translate(0,152.36217)"
           id="path3005" />
        <path
           style="fill:#ffffff;fill-opacity:1;stroke:none"
           d="m 360,280 0,80 40,0 0,-60 20,0 0,60 20,0 0,-60 20,0 0,60 20,0 0,-80 z"
           id="path3007"
           inkscape:connector-curvature="0"
           transform="translate(0,152.36217)"
           sodipodi:nodetypes="ccccccccccccc" />
      </g>
      <g
         transform="matrix(0.24755132,0,0,0.24659376,35.116598,802.81382)"
         id="g4430">
        <path
           style="fill:#000080;fill-opacity:1;stroke:none"
           d="m 232,237.36217 5,-4 358,0 2,3 -3,1 -356,0 -2,2 0,116 -1,3 -3,-2 z"
           id="path4363"
           inkscape:connector-curvature="0"
           sodipodi:nodetypes="ccccccccccc" />
        <path
           style="fill:#000080;fill-opacity:1;stroke:none"
           d="m 335,356.36217 1,-1 1,1 0,19 -2,2 -2,-2 0,-17 z"
           id="path4365"
           inkscape:connector-curvature="0"
           sodipodi:nodetypes="cccccccc" />
        <path
           style="fill:#ffffff;fill-opacity:1;stroke:none"
           d="m 235,358.36217 98,0 3,-3 -0.008,-0.71167 -99.90169,-0.37456 z"
           id="path4367"
           inkscape:connector-curvature="0"
           sodipodi:nodetypes="cccccc" />
        <path
           style="fill:#ffffff;fill-opacity:1;stroke:none"
           d="m 337.27051,374.27594 77.79281,0.0353 -0.17966,-17.56889 1.12623,-2.14054 177.6114,0.11089 0.37871,-0.35053 0,-117 3,-1 1,1 0,118 -3,3 -176,0 -1,1 0,17 -2.90983,1.46118 -79.09017,0.53882 -1,-1 z"
           id="path4369"
           inkscape:connector-curvature="0"
           sodipodi:nodetypes="cccccccccccccccccc" />
      </g>
    </g>
  </g>
</svg>
